<?xml version="1.0" encoding="UTF-8" standalone="no"?><svg xmlns="http://www.w3.org/2000/svg" xmlns:xlink="http://www.w3.org/1999/xlink" contentScriptType="application/ecmascript" contentStyleType="text/css" height="445px" preserveAspectRatio="none" style="width:371px;height:445px;background:#FFFFFF;" version="1.1" viewBox="0 0 371 445" width="371px" zoomAndPan="magnify"><defs><filter height="300%" id="f1hquqcichchbh" width="300%" x="-1" y="-1"><feGaussianBlur result="blurOut" stdDeviation="2.0"/><feColorMatrix in="blurOut" result="blurOut2" type="matrix" values="0 0 0 0 0 0 0 0 0 0 0 0 0 0 0 0 0 0 .4 0"/><feOffset dx="4.0" dy="4.0" in="blurOut2" result="blurOut3"/><feBlend in="SourceGraphic" in2="blurOut3" mode="normal"/></filter></defs><g><!--MD5=[038b3b634a15bdf03051a317fd208e11]
cluster javafx.fxml--><polygon fill="#FFFFFF" filter="url(#f1hquqcichchbh)" points="16,6,97,6,104,29.6094,354,29.6094,354,120,16,120,16,6" style="stroke:#000000;stroke-width:1.5;"/><line style="stroke:#000000;stroke-width:1.5;" x1="16" x2="104" y1="29.6094" y2="29.6094"/><text fill="#000000" font-family="sans-serif" font-size="14" font-weight="bold" lengthAdjust="spacing" textLength="75" x="20" y="22.5332">javafx.fxml</text><!--MD5=[d98a7746c7b52a160a0ebc646845da84]
cluster de.thro.inf.prg3.a06.controller--><polygon fill="#FFFFFF" filter="url(#f1hquqcichchbh)" points="46,144,262,144,269,167.6094,324,167.6094,324,438,46,438,46,144" style="stroke:#000000;stroke-width:1.5;"/><line style="stroke:#000000;stroke-width:1.5;" x1="46" x2="269" y1="167.6094" y2="167.6094"/><text fill="#000000" font-family="sans-serif" font-size="14" font-weight="bold" lengthAdjust="spacing" textLength="210" x="50" y="160.5332">de.thro.inf.prg3.a06.controller</text><!--MD5=[c6dd7699ff04048cb9365e543f81bf42]
class Initializable--><rect codeLine="3" fill="#FEFECE" filter="url(#f1hquqcichchbh)" height="61.8359" id="Initializable" style="stroke:#A80036;stroke-width:1.5;" width="305" x="32.5" y="42"/><ellipse cx="148.25" cy="58" fill="#B4A7E5" rx="11" ry="11" style="stroke:#A80036;stroke-width:1.0;"/><path d="M149.25,55 L149.25,61 L151.25,61 L151.7344,61 L152.25,61.625 L152.25,62 L152.25,62.375 L151.7344,63 L151.25,63 L145.25,63 L144.7656,63 L144.25,62.375 L144.25,62 L144.25,61.625 L144.7656,61 L145.25,61 L147.25,61 L147.25,55 L145.25,55 L144.7656,55 L144.25,54.375 L144.25,54 L144.25,53.625 L144.7656,53 L145.25,53 L151.25,53 L151.7344,53 L152.25,53.625 L152.25,54 L152.25,54.375 L151.7344,55 L151.25,55 L149.25,55 Z " fill="#000000"/><text fill="#000000" font-family="sans-serif" font-size="12" font-style="italic" lengthAdjust="spacing" textLength="65" x="168.75" y="62.9102">Initializable</text><line style="stroke:#A80036;stroke-width:1.5;" x1="33.5" x2="336.5" y1="74" y2="74"/><line style="stroke:#A80036;stroke-width:1.5;" x1="33.5" x2="336.5" y1="82" y2="82"/><ellipse cx="43.5" cy="93" fill="#84BE84" rx="3" ry="3" style="stroke:#038048;stroke-width:1.0;"/><text fill="#000000" font-family="sans-serif" font-size="11" lengthAdjust="spacing" textLength="279" x="52.5" y="97.4189">initialize(location: URL, resources: ResourceBundle ): void</text><!--MD5=[a1433dedd9ad9d82b4744c93b639bae5]
class ListViewUiController--><rect codeLine="10" fill="#FEFECE" filter="url(#f1hquqcichchbh)" height="241.7031" id="ListViewUiController" style="stroke:#A80036;stroke-width:1.5;" width="245" x="62.5" y="180"/><ellipse cx="119.25" cy="196" fill="#ADD1B2" rx="11" ry="11" style="stroke:#A80036;stroke-width:1.0;"/><path d="M121.25,192.5 Q121.4531,192 121.6875,191.75 Q121.9219,191.5 122.1875,191.5 Q122.6563,191.5 122.9531,191.7813 Q123.25,192.0625 123.25,192.7188 L123.25,194.2813 Q123.25,194.9375 122.9688,195.2188 Q122.6875,195.5 122.25,195.5 Q121.8594,195.5 121.6094,195.3281 Q121.3594,195.1563 121.25,194.7031 Q121.2031,194.3906 121.0313,194.2188 Q120.7188,193.8906 120.1563,193.7031 Q119.5938,193.5 119.0313,193.5 Q118.3281,193.5 117.7344,193.7813 Q117.1563,194.0625 116.7031,194.6875 Q116.25,195.3125 116.25,196.1719 L116.25,197.0938 Q116.25,198.125 117.0938,198.8125 Q117.9375,199.5 119.4375,199.5 Q120.3281,199.5 120.9531,199.2969 Q121.3125,199.1875 121.7188,198.8281 Q121.9844,198.625 122.125,198.5625 Q122.2656,198.5 122.4375,198.5 Q122.7656,198.5 123,198.7656 Q123.25,199.0156 123.25,199.375 Q123.25,199.7188 122.9063,200.125 Q122.4063,200.7188 121.6094,201.0469 Q120.5625,201.5 119.2813,201.5 Q117.7813,201.5 116.5781,200.9063 Q115.6094,200.4375 114.9219,199.4219 Q114.25,198.4063 114.25,197.2031 L114.25,196.1094 Q114.25,194.8594 114.8438,193.7656 Q115.4531,192.6719 116.5,192.0938 Q117.5625,191.5 118.75,191.5 Q119.4688,191.5 120.0938,191.75 Q120.7188,192 121.25,192.5 Z " fill="#000000"/><ellipse cx="144.75" cy="195.5" fill="#84BE84" rx="3" ry="3" style="stroke:#038048;stroke-width:1.0;"/><text fill="#000000" font-family="sans-serif" font-size="12" lengthAdjust="spacing" textLength="112" x="150.75" y="200.9102">ListViewUiController</text><line style="stroke:#A80036;stroke-width:1.5;" x1="63.5" x2="306.5" y1="212" y2="212"/><text fill="#000000" font-family="sans-serif" font-size="11" lengthAdjust="spacing" textLength="108" x="68.5" y="227.4189">private btnAdd: Button</text><text fill="#000000" font-family="sans-serif" font-size="11" lengthAdjust="spacing" textLength="118" x="68.5" y="241.2549">private btnDelete: Button</text><text fill="#000000" font-family="sans-serif" font-size="11" lengthAdjust="spacing" textLength="121" x="68.5" y="255.0908">private bBox4Btns: HBox</text><text fill="#000000" font-family="sans-serif" font-size="11" lengthAdjust="spacing" textLength="119" x="68.5" y="268.9268">private lblAddText: Label</text><text fill="#000000" font-family="sans-serif" font-size="11" lengthAdjust="spacing" textLength="179" x="68.5" y="282.7627">private listBoxMain: ListView&lt;String&gt;</text><text fill="#000000" font-family="sans-serif" font-size="11" lengthAdjust="spacing" textLength="101" x="68.5" y="296.5986">private titleLbl: Label;</text><text fill="#000000" font-family="sans-serif" font-size="11" lengthAdjust="spacing" textLength="119" x="68.5" y="310.4346">private vBoxMain: VBox;</text><text fill="#000000" font-family="sans-serif" font-size="11" lengthAdjust="spacing" textLength="136" x="68.5" y="324.2705">private txtAddItem: TextField</text><text fill="#000000" font-family="sans-serif" font-size="11" lengthAdjust="spacing" textLength="180" x="68.5" y="338.1064">final listItems: ObservableList&lt;String&gt;</text><line style="stroke:#A80036;stroke-width:1.5;" x1="63.5" x2="306.5" y1="344.5234" y2="344.5234"/><text fill="#000000" font-family="sans-serif" font-size="11" lengthAdjust="spacing" textLength="215" x="68.5" y="359.9424">private addAction(action: ActionEvent ): void</text><text fill="#000000" font-family="sans-serif" font-size="11" lengthAdjust="spacing" textLength="223" x="68.5" y="373.7783">private deleteAction(action: ActionEvent): void</text><text fill="#000000" font-family="sans-serif" font-size="11" lengthAdjust="spacing" textLength="227" x="68.5" y="387.6143">private updateAction(action: ActionEvent): void</text><text fill="#000000" font-family="sans-serif" font-size="11" lengthAdjust="spacing" textLength="228" x="68.5" y="401.4502">private searchAction(action: ActionEvent): void</text><text fill="#000000" font-family="sans-serif" font-size="11" lengthAdjust="spacing" textLength="233" x="68.5" y="415.2861">public void initialize(URL url, ResourceBundle rb)</text><!--MD5=[26caad93257354d9c8c4dae47554cafc]
reverse link Initializable to ListViewUiController--><path d="M185,124.17 C185,140.82 185,160.15 185,179.77 " fill="none" id="Initializable-backto-ListViewUiController" style="stroke:#A80036;stroke-width:1.0;stroke-dasharray:7.0,7.0;"/><polygon fill="none" points="178,124.01,185,104.01,192,124.01,178,124.01" style="stroke:#A80036;stroke-width:1.0;"/><!--MD5=[34d026ff3d6b83e57e0f7a6ee85e25d3]
@startuml
package javafx.fxml {
    
    interface Initializable {
        +initialize(location: URL, resources: ResourceBundle ): void
    }
}

package de.thro.inf.prg3.a06.controller {

        +class ListViewUiController implements Initializable {

            private btnAdd: Button
            private btnDelete: Button
            private bBox4Btns: HBox
            private lblAddText: Label
            private listBoxMain: ListView<String>
            private titleLbl: Label;
            private vBoxMain: VBox;
            private txtAddItem: TextField
            final listItems: ObservableList<String>

            private addAction(action: ActionEvent ): void
            private deleteAction(action: ActionEvent): void
            private updateAction(action: ActionEvent): void
            private searchAction(action: ActionEvent): void
            public void initialize(URL url, ResourceBundle rb)
    }
@enduml

PlantUML version 1.2021.7(Sun May 23 14:40:07 CEST 2021)
(GPL source distribution)
Java Runtime: OpenJDK Runtime Environment
JVM: OpenJDK 64-Bit Server VM
Default Encoding: Cp1252
Language: de
Country: DE
--></g></svg>