<?xml version="1.0" encoding="UTF-8" standalone="no"?><svg xmlns="http://www.w3.org/2000/svg" xmlns:xlink="http://www.w3.org/1999/xlink" contentStyleType="text/css" height="662px" preserveAspectRatio="none" style="width:586px;height:662px;background:#FFFFFF;" version="1.1" viewBox="0 0 586 662" width="586px" zoomAndPan="magnify"><defs/><g><!--MD5=[aa8f7b917213fcc1c2766e2d59b49067]
cluster java.lang--><g id="cluster_java.lang"><path d="M38.5,6 L113.5,6 A3.75,3.75 0 0 1 116,8.5 L123,28.2969 L450.5,28.2969 A2.5,2.5 0 0 1 453,30.7969 L453,135.5 A2.5,2.5 0 0 1 450.5,138 L38.5,138 A2.5,2.5 0 0 1 36,135.5 L36,8.5 A2.5,2.5 0 0 1 38.5,6 " fill="none" style="stroke:#000000;stroke-width:1.5;"/><line style="stroke:#000000;stroke-width:1.5;" x1="36" x2="123" y1="28.2969" y2="28.2969"/><text fill="#000000" font-family="sans-serif" font-size="14" font-weight="bold" lengthAdjust="spacing" textLength="74" x="40" y="20.9951">java.lang</text></g><!--MD5=[a85938c63302a5e81d6b03887db00592]
cluster de.thro.inf.prg3.a04.collections--><g id="cluster_de.thro.inf.prg3.a04.collections"><path d="M8.5,162 L266.5,162 A3.75,3.75 0 0 1 269,164.5 L276,184.2969 L576.5,184.2969 A2.5,2.5 0 0 1 579,186.7969 L579,652.5 A2.5,2.5 0 0 1 576.5,655 L8.5,655 A2.5,2.5 0 0 1 6,652.5 L6,164.5 A2.5,2.5 0 0 1 8.5,162 " fill="none" style="stroke:#000000;stroke-width:1.5;"/><line style="stroke:#000000;stroke-width:1.5;" x1="6" x2="276" y1="184.2969" y2="184.2969"/><text fill="#000000" font-family="sans-serif" font-size="14" font-weight="bold" lengthAdjust="spacing" textLength="257" x="10" y="176.9951">de.thro.inf.prg3.a04.collections</text></g><!--MD5=[47de47a8b5f06cbc5e036fae0a9149b7]
class Iterable--><g id="elem_Iterable"><rect codeLine="3" fill="#F1F1F1" height="64.2969" id="Iterable" rx="2.5" ry="2.5" style="stroke:#181818;stroke-width:0.5;" width="188" x="249" y="49.5"/><ellipse cx="305.75" cy="65.5" fill="#B4A7E5" rx="11" ry="11" style="stroke:#181818;stroke-width:1.0;"/><path d="M306.7031,62.2813 L308.4219,62.2813 C308.8125,62.2813 309,62.25 309.125,62.1719 C309.3906,62.0156 309.5313,61.7344 309.5313,61.4375 C309.5313,61.1719 309.4219,60.9063 309.1875,60.7344 C309.0156,60.625 308.875,60.5938 308.4219,60.5938 L303.2813,60.5938 C302.8438,60.5938 302.7188,60.6094 302.5625,60.7031 C302.3125,60.8594 302.1563,61.1563 302.1563,61.4375 C302.1563,61.7188 302.2969,61.9688 302.5156,62.1406 C302.6719,62.25 302.8594,62.2813 303.2813,62.2813 L305,62.2813 L305,68.7969 L303.2813,68.7969 C302.8438,68.7969 302.7188,68.8125 302.5625,68.9219 C302.3125,69.0781 302.1563,69.3594 302.1563,69.6563 C302.1563,69.9063 302.2969,70.1719 302.5156,70.3281 C302.6719,70.4531 302.875,70.5 303.2813,70.5 L308.4219,70.5 C309.1719,70.5 309.5313,70.2188 309.5313,69.6563 C309.5313,69.375 309.4219,69.125 309.1875,68.9531 C309.0156,68.8281 308.875,68.7969 308.4219,68.7969 L306.7031,68.7969 L306.7031,62.2813 Z " fill="#000000"/><text fill="#000000" font-family="sans-serif" font-size="14" font-style="italic" lengthAdjust="spacing" textLength="55" x="326.25" y="70.3467">Iterable</text><rect fill="#FFFFFF" height="15.9688" style="stroke:#181818;stroke-width:1.0;stroke-dasharray:2.0,2.0;" width="9" x="431" y="46.5"/><text fill="#000000" font-family="sans-serif" font-size="12" font-style="italic" lengthAdjust="spacing" textLength="7" x="432" y="58.6387">T</text><line style="stroke:#181818;stroke-width:0.5;" x1="250" x2="436" y1="81.5" y2="81.5"/><line style="stroke:#181818;stroke-width:0.5;" x1="250" x2="436" y1="89.5" y2="89.5"/><ellipse cx="260" cy="103.1484" fill="#84BE84" rx="3" ry="3" style="stroke:#038048;stroke-width:1.0;"/><text fill="#000000" font-family="sans-serif" font-size="14" lengthAdjust="spacing" textLength="162" x="269" y="106.4951">iterator(): Iterator&lt;T&gt;</text></g><!--MD5=[023ecf6702e3ca2ce47ae747eafb20f1]
class Iterator--><g id="elem_Iterator"><rect codeLine="7" fill="#F1F1F1" height="80.5938" id="Iterator" rx="2.5" ry="2.5" style="stroke:#181818;stroke-width:0.5;" width="161" x="52.5" y="41"/><ellipse cx="96.75" cy="57" fill="#B4A7E5" rx="11" ry="11" style="stroke:#181818;stroke-width:1.0;"/><path d="M97.7031,53.7813 L99.4219,53.7813 C99.8125,53.7813 100,53.75 100.125,53.6719 C100.3906,53.5156 100.5313,53.2344 100.5313,52.9375 C100.5313,52.6719 100.4219,52.4063 100.1875,52.2344 C100.0156,52.125 99.875,52.0938 99.4219,52.0938 L94.2813,52.0938 C93.8438,52.0938 93.7188,52.1094 93.5625,52.2031 C93.3125,52.3594 93.1563,52.6563 93.1563,52.9375 C93.1563,53.2188 93.2969,53.4688 93.5156,53.6406 C93.6719,53.75 93.8594,53.7813 94.2813,53.7813 L96,53.7813 L96,60.2969 L94.2813,60.2969 C93.8438,60.2969 93.7188,60.3125 93.5625,60.4219 C93.3125,60.5781 93.1563,60.8594 93.1563,61.1563 C93.1563,61.4063 93.2969,61.6719 93.5156,61.8281 C93.6719,61.9531 93.875,62 94.2813,62 L99.4219,62 C100.1719,62 100.5313,61.7188 100.5313,61.1563 C100.5313,60.875 100.4219,60.625 100.1875,60.4531 C100.0156,60.3281 99.875,60.2969 99.4219,60.2969 L97.7031,60.2969 L97.7031,53.7813 Z " fill="#000000"/><text fill="#000000" font-family="sans-serif" font-size="14" font-style="italic" lengthAdjust="spacing" textLength="53" x="117.25" y="61.8467">Iterator</text><rect fill="#FFFFFF" height="15.9688" style="stroke:#181818;stroke-width:1.0;stroke-dasharray:2.0,2.0;" width="9" x="207.5" y="38"/><text fill="#000000" font-family="sans-serif" font-size="12" font-style="italic" lengthAdjust="spacing" textLength="7" x="208.5" y="50.1387">T</text><line style="stroke:#181818;stroke-width:0.5;" x1="53.5" x2="212.5" y1="73" y2="73"/><line style="stroke:#181818;stroke-width:0.5;" x1="53.5" x2="212.5" y1="81" y2="81"/><ellipse cx="63.5" cy="94.6484" fill="#84BE84" rx="3" ry="3" style="stroke:#038048;stroke-width:1.0;"/><text fill="#000000" font-family="sans-serif" font-size="14" lengthAdjust="spacing" textLength="135" x="72.5" y="97.9951">hasNext(): boolean</text><ellipse cx="63.5" cy="110.9453" fill="#84BE84" rx="3" ry="3" style="stroke:#038048;stroke-width:1.0;"/><text fill="#000000" font-family="sans-serif" font-size="14" lengthAdjust="spacing" textLength="61" x="72.5" y="114.292">next(): T</text></g><!--MD5=[2fc307995a77e1ff0d3f050568daae73]
class SimpleList--><g id="elem_SimpleList"><rect codeLine="15" fill="#F1F1F1" height="129.4844" id="SimpleList" rx="2.5" ry="2.5" style="stroke:#181818;stroke-width:0.5;" width="367" x="195.5" y="197"/><ellipse cx="332.75" cy="213" fill="#B4A7E5" rx="11" ry="11" style="stroke:#181818;stroke-width:1.0;"/><path d="M333.7031,209.7813 L335.4219,209.7813 C335.8125,209.7813 336,209.75 336.125,209.6719 C336.3906,209.5156 336.5313,209.2344 336.5313,208.9375 C336.5313,208.6719 336.4219,208.4063 336.1875,208.2344 C336.0156,208.125 335.875,208.0938 335.4219,208.0938 L330.2813,208.0938 C329.8438,208.0938 329.7188,208.1094 329.5625,208.2031 C329.3125,208.3594 329.1563,208.6563 329.1563,208.9375 C329.1563,209.2188 329.2969,209.4688 329.5156,209.6406 C329.6719,209.75 329.8594,209.7813 330.2813,209.7813 L332,209.7813 L332,216.2969 L330.2813,216.2969 C329.8438,216.2969 329.7188,216.3125 329.5625,216.4219 C329.3125,216.5781 329.1563,216.8594 329.1563,217.1563 C329.1563,217.4063 329.2969,217.6719 329.5156,217.8281 C329.6719,217.9531 329.875,218 330.2813,218 L335.4219,218 C336.1719,218 336.5313,217.7188 336.5313,217.1563 C336.5313,216.875 336.4219,216.625 336.1875,216.4531 C336.0156,216.3281 335.875,216.2969 335.4219,216.2969 L333.7031,216.2969 L333.7031,209.7813 Z " fill="#000000"/><text fill="#000000" font-family="sans-serif" font-size="14" font-style="italic" lengthAdjust="spacing" textLength="73" x="353.25" y="217.8467">SimpleList</text><rect fill="#FFFFFF" height="15.9688" style="stroke:#181818;stroke-width:1.0;stroke-dasharray:2.0,2.0;" width="9" x="556.5" y="194"/><text fill="#000000" font-family="sans-serif" font-size="12" font-style="italic" lengthAdjust="spacing" textLength="7" x="557.5" y="206.1387">T</text><line style="stroke:#181818;stroke-width:0.5;" x1="196.5" x2="561.5" y1="229" y2="229"/><line style="stroke:#181818;stroke-width:0.5;" x1="196.5" x2="561.5" y1="237" y2="237"/><ellipse cx="206.5" cy="250.6484" fill="#84BE84" rx="3" ry="3" style="stroke:#038048;stroke-width:1.0;"/><text fill="#000000" font-family="sans-serif" font-size="14" lengthAdjust="spacing" textLength="88" x="215.5" y="253.9951">add(item: T)</text><ellipse cx="206.5" cy="266.9453" fill="#84BE84" rx="3" ry="3" style="stroke:#038048;stroke-width:1.0;"/><text fill="#000000" font-family="sans-serif" font-size="14" lengthAdjust="spacing" textLength="121" x="215.5" y="270.292">get(index: int): T</text><ellipse cx="206.5" cy="283.2422" fill="#84BE84" rx="3" ry="3" style="stroke:#038048;stroke-width:1.0;"/><text fill="#000000" font-family="sans-serif" font-size="14" lengthAdjust="spacing" textLength="161" x="215.5" y="286.5889">set(index: int, item: T)</text><ellipse cx="206.5" cy="299.5391" fill="#84BE84" rx="3" ry="3" style="stroke:#038048;stroke-width:1.0;"/><text fill="#000000" font-family="sans-serif" font-size="14" lengthAdjust="spacing" textLength="67" x="215.5" y="302.8857">size(): int</text><ellipse cx="206.5" cy="315.8359" fill="#84BE84" rx="3" ry="3" style="stroke:#038048;stroke-width:1.0;"/><text fill="#000000" font-family="sans-serif" font-size="14" lengthAdjust="spacing" textLength="341" x="215.5" y="319.1826">filter(predicate: Predicate&lt;T&gt;): SimpleList&lt;T&gt;</text></g><!--MD5=[74237e9ecd45c2c288ba960a22a95c9b]
class SimpleListImpl--><g id="elem_SimpleListImpl"><rect codeLine="23" fill="#F1F1F1" height="64.2969" id="SimpleListImpl" rx="2.5" ry="2.5" style="stroke:#181818;stroke-width:0.5;" width="157" x="300.5" y="386"/><ellipse cx="318.2" cy="402" fill="#ADD1B2" rx="11" ry="11" style="stroke:#181818;stroke-width:1.0;"/><path d="M320.5438,397.6719 C319.6063,397.2344 319.0125,397.0938 318.1375,397.0938 C315.5125,397.0938 313.5125,399.1719 313.5125,401.8906 L313.5125,403.0156 C313.5125,405.5938 315.6219,407.4844 318.5125,407.4844 C319.7313,407.4844 320.8875,407.1875 321.6375,406.6406 C322.2156,406.2344 322.5438,405.7813 322.5438,405.3906 C322.5438,404.9375 322.1531,404.5469 321.6844,404.5469 C321.4656,404.5469 321.2625,404.625 321.075,404.8125 C320.6219,405.2969 320.6219,405.2969 320.4344,405.3906 C320.0125,405.6563 319.325,405.7813 318.5594,405.7813 C316.5125,405.7813 315.2156,404.6875 315.2156,402.9844 L315.2156,401.8906 C315.2156,400.1094 316.4656,398.7969 318.2,398.7969 C318.7781,398.7969 319.3875,398.9531 319.8563,399.2031 C320.3406,399.4844 320.5125,399.7031 320.6063,400.1094 C320.6688,400.5156 320.7,400.6406 320.8406,400.7656 C320.9813,400.9063 321.2156,401.0156 321.4344,401.0156 C321.7,401.0156 321.9656,400.875 322.1375,400.6563 C322.2469,400.5 322.2781,400.3125 322.2781,399.8906 L322.2781,398.4688 C322.2781,398.0313 322.2625,397.9063 322.1688,397.75 C322.0125,397.4844 321.7313,397.3438 321.4344,397.3438 C321.1375,397.3438 320.9344,397.4375 320.7156,397.75 L320.5438,397.6719 Z " fill="#000000"/><text fill="#000000" font-family="sans-serif" font-size="14" lengthAdjust="spacing" textLength="108" x="332.8" y="406.8467">SimpleListImpl</text><rect fill="#FFFFFF" height="15.9688" style="stroke:#181818;stroke-width:1.0;stroke-dasharray:2.0,2.0;" width="9" x="451.5" y="383"/><text fill="#000000" font-family="sans-serif" font-size="12" font-style="italic" lengthAdjust="spacing" textLength="7" x="452.5" y="395.1387">T</text><line style="stroke:#181818;stroke-width:0.5;" x1="301.5" x2="456.5" y1="418" y2="418"/><rect fill="none" height="6" style="stroke:#C82930;stroke-width:1.0;" width="6" x="308.5" y="428.6484"/><text fill="#000000" font-family="sans-serif" font-size="14" lengthAdjust="spacing" textLength="131" x="320.5" y="434.9951">head: ListElement</text><line style="stroke:#181818;stroke-width:0.5;" x1="301.5" x2="456.5" y1="442.2969" y2="442.2969"/></g><!--MD5=[d54a61f60015120e7559dc228d39022b]
class SimpleIterator--><g id="elem_SimpleIterator"><rect codeLine="27" fill="#F1F1F1" height="48" id="SimpleIterator" rx="2.5" ry="2.5" style="stroke:#181818;stroke-width:0.5;" width="138" x="22" y="237.5"/><ellipse cx="37" cy="253.5" fill="#ADD1B2" rx="11" ry="11" style="stroke:#181818;stroke-width:1.0;"/><path d="M39.3438,249.1719 C38.4063,248.7344 37.8125,248.5938 36.9375,248.5938 C34.3125,248.5938 32.3125,250.6719 32.3125,253.3906 L32.3125,254.5156 C32.3125,257.0938 34.4219,258.9844 37.3125,258.9844 C38.5313,258.9844 39.6875,258.6875 40.4375,258.1406 C41.0156,257.7344 41.3438,257.2813 41.3438,256.8906 C41.3438,256.4375 40.9531,256.0469 40.4844,256.0469 C40.2656,256.0469 40.0625,256.125 39.875,256.3125 C39.4219,256.7969 39.4219,256.7969 39.2344,256.8906 C38.8125,257.1563 38.125,257.2813 37.3594,257.2813 C35.3125,257.2813 34.0156,256.1875 34.0156,254.4844 L34.0156,253.3906 C34.0156,251.6094 35.2656,250.2969 37,250.2969 C37.5781,250.2969 38.1875,250.4531 38.6563,250.7031 C39.1406,250.9844 39.3125,251.2031 39.4063,251.6094 C39.4688,252.0156 39.5,252.1406 39.6406,252.2656 C39.7813,252.4063 40.0156,252.5156 40.2344,252.5156 C40.5,252.5156 40.7656,252.375 40.9375,252.1563 C41.0469,252 41.0781,251.8125 41.0781,251.3906 L41.0781,249.9688 C41.0781,249.5313 41.0625,249.4063 40.9688,249.25 C40.8125,248.9844 40.5313,248.8438 40.2344,248.8438 C39.9375,248.8438 39.7344,248.9375 39.5156,249.25 L39.3438,249.1719 Z " fill="#000000"/><text fill="#000000" font-family="sans-serif" font-size="14" lengthAdjust="spacing" textLength="106" x="51" y="258.3467">SimpleIterator</text><line style="stroke:#181818;stroke-width:0.5;" x1="23" x2="159" y1="269.5" y2="269.5"/><line style="stroke:#181818;stroke-width:0.5;" x1="23" x2="159" y1="277.5" y2="277.5"/></g><!--MD5=[ec76e9b591c172d6698a784f50b81647]
class ListElement--><g id="elem_ListElement"><rect codeLine="30" fill="#F1F1F1" height="129.4844" id="ListElement" rx="2.5" ry="2.5" style="stroke:#181818;stroke-width:0.5;" width="229" x="264.5" y="510"/><ellipse cx="320.25" cy="526" fill="#ADD1B2" rx="11" ry="11" style="stroke:#181818;stroke-width:1.0;"/><path d="M322.5938,521.6719 C321.6563,521.2344 321.0625,521.0938 320.1875,521.0938 C317.5625,521.0938 315.5625,523.1719 315.5625,525.8906 L315.5625,527.0156 C315.5625,529.5938 317.6719,531.4844 320.5625,531.4844 C321.7813,531.4844 322.9375,531.1875 323.6875,530.6406 C324.2656,530.2344 324.5938,529.7813 324.5938,529.3906 C324.5938,528.9375 324.2031,528.5469 323.7344,528.5469 C323.5156,528.5469 323.3125,528.625 323.125,528.8125 C322.6719,529.2969 322.6719,529.2969 322.4844,529.3906 C322.0625,529.6563 321.375,529.7813 320.6094,529.7813 C318.5625,529.7813 317.2656,528.6875 317.2656,526.9844 L317.2656,525.8906 C317.2656,524.1094 318.5156,522.7969 320.25,522.7969 C320.8281,522.7969 321.4375,522.9531 321.9063,523.2031 C322.3906,523.4844 322.5625,523.7031 322.6563,524.1094 C322.7188,524.5156 322.75,524.6406 322.8906,524.7656 C323.0313,524.9063 323.2656,525.0156 323.4844,525.0156 C323.75,525.0156 324.0156,524.875 324.1875,524.6563 C324.2969,524.5 324.3281,524.3125 324.3281,523.8906 L324.3281,522.4688 C324.3281,522.0313 324.3125,521.9063 324.2188,521.75 C324.0625,521.4844 323.7813,521.3438 323.4844,521.3438 C323.1875,521.3438 322.9844,521.4375 322.7656,521.75 L322.5938,521.6719 Z " fill="#000000"/><rect fill="#F24D5C" height="6" style="stroke:#C82930;stroke-width:1.0;" width="6" x="342.75" y="522.5"/><text fill="#000000" font-family="sans-serif" font-size="14" lengthAdjust="spacing" textLength="87" x="351.75" y="530.8467">ListElement</text><rect fill="#FFFFFF" height="15.9688" style="stroke:#181818;stroke-width:1.0;stroke-dasharray:2.0,2.0;" width="9" x="487.5" y="507"/><text fill="#000000" font-family="sans-serif" font-size="12" font-style="italic" lengthAdjust="spacing" textLength="7" x="488.5" y="519.1387">T</text><line style="stroke:#181818;stroke-width:0.5;" x1="265.5" x2="492.5" y1="542" y2="542"/><rect fill="none" height="6" style="stroke:#C82930;stroke-width:1.0;" width="6" x="272.5" y="552.6484"/><text fill="#000000" font-family="sans-serif" font-size="14" lengthAdjust="spacing" textLength="52" x="284.5" y="558.9951">item: T</text><rect fill="none" height="6" style="stroke:#C82930;stroke-width:1.0;" width="6" x="272.5" y="568.9453"/><text fill="#000000" font-family="sans-serif" font-size="14" lengthAdjust="spacing" textLength="160" x="284.5" y="575.292">next: ListElement&lt;T&gt;</text><line style="stroke:#181818;stroke-width:0.5;" x1="265.5" x2="492.5" y1="582.5938" y2="582.5938"/><ellipse cx="275.5" cy="596.2422" fill="#84BE84" rx="3" ry="3" style="stroke:#038048;stroke-width:1.0;"/><text fill="#000000" font-family="sans-serif" font-size="14" lengthAdjust="spacing" textLength="87" x="284.5" y="599.5889">getItem(): T</text><ellipse cx="275.5" cy="612.5391" fill="#84BE84" rx="3" ry="3" style="stroke:#038048;stroke-width:1.0;"/><text fill="#000000" font-family="sans-serif" font-size="14" lengthAdjust="spacing" textLength="196" x="284.5" y="615.8857">getNext(): ListElement&lt;T&gt;</text><ellipse cx="275.5" cy="628.8359" fill="#84BE84" rx="3" ry="3" style="stroke:#038048;stroke-width:1.0;"/><text fill="#000000" font-family="sans-serif" font-size="14" lengthAdjust="spacing" textLength="203" x="284.5" y="632.1826">setNext(e: ListElement&lt;T&gt;)</text></g><!--MD5=[2e21931a002b1ae8fac06f0aac5056ca]
reverse link Iterable to SimpleList--><g id="link_Iterable_SimpleList"><path d="M353.24,133.129 C357.239,152.906 361.871,175.808 366.095,196.694 " fill="none" id="Iterable-backto-SimpleList" style="stroke:#181818;stroke-width:1.0;"/><polygon fill="none" points="346.374,134.496,349.271,113.505,360.097,131.721,346.374,134.496" style="stroke:#181818;stroke-width:1.0;"/></g><!--MD5=[9c79a502382212cfa2acddb4573e9f2b]
reverse link SimpleList to SimpleListImpl--><g id="link_SimpleList_SimpleListImpl"><path d="M379,346.249 C379,360.411 379,374.279 379,385.932 " fill="none" id="SimpleList-backto-SimpleListImpl" style="stroke:#181818;stroke-width:1.0;stroke-dasharray:7.0,7.0;"/><polygon fill="none" points="372,346.233,379,326.233,386,346.233,372,346.233" style="stroke:#181818;stroke-width:1.0;"/></g><!--MD5=[6504b5cd804b8a4d7a7b1a87492dee02]
reverse link Iterator to SimpleIterator--><g id="link_Iterator_SimpleIterator"><path d="M118.981,141.914 C111.261,174.631 102.121,213.366 96.441,237.441 " fill="none" id="Iterator-backto-SimpleIterator" style="stroke:#181818;stroke-width:1.0;stroke-dasharray:7.0,7.0;"/><polygon fill="none" points="112.273,139.862,123.679,122.004,125.899,143.077,112.273,139.862" style="stroke:#181818;stroke-width:1.0;"/></g><!--MD5=[0cf72cb4f9fe3be05827ac9ea840bde4]
reverse link SimpleListImpl to ListElement--><g id="link_SimpleListImpl_ListElement"><path codeLine="39" d="M367.211,465.235 C366.298,479.215 366.035,494.819 366.424,509.732 " fill="none" id="SimpleListImpl-backto-ListElement" style="stroke:#181818;stroke-width:1.0;"/><ellipse cx="367.8226" cy="458.2346" fill="#FFFFFF" rx="8" ry="8" style="stroke:#181818;stroke-width:1.0;"/><line style="stroke:#181818;stroke-width:1.0;" x1="367.1262" x2="368.519" y1="466.2043" y2="450.265"/><line style="stroke:#181818;stroke-width:1.0;" x1="359.853" x2="375.7922" y1="457.5382" y2="458.931"/></g><!--MD5=[3d9ecae6dfb378615ef19a46793f7ac8]
link ListElement to SimpleListImpl--><g id="link_ListElement_SimpleListImpl"><path codeLine="40" d="M392.316,509.732 C392.745,494.178 392.424,477.871 391.354,463.44 " fill="none" id="ListElement-to-SimpleListImpl" style="stroke:#181818;stroke-width:1.0;"/><polygon fill="#181818" points="390.097,450.265,386.6847,456.6177,391.2363,462.2108,394.6486,455.8581,390.097,450.265" style="stroke:#181818;stroke-width:1.0;"/></g><!--MD5=[1ae3944c6f0496b82e3c526a533749e4]
@startuml
package java.lang {
    
    interface Iterable<T> {
        +iterator(): Iterator<T>
    }

    interface Iterator<T> {
        +hasNext(): boolean
        +next(): T
    }
}

package de.thro.inf.prg3.a04.collections {

        interface SimpleList<T> extends Iterable {
            +add(item: T)
            +get(index: int): T
            +set(index: int, item: T)
            +size(): int
            +filter(predicate: Predicate<T>): SimpleList<T>
        }

        class SimpleListImpl<T> implements SimpleList {
           -head: ListElement
        }

        class SimpleIterator implements Iterator {
        }

        -class ListElement<T> {
            -item: T
            -next: ListElement<T>
    
            +getItem(): T
            +getNext(): ListElement<T>
            +setNext(e: ListElement<T>)
        }

        SimpleListImpl +- - ListElement
        ListElement - -* SimpleListImpl
    }
@enduml

PlantUML version 1.2022.13beta2(Unknown compile time)
(GPL source distribution)
Java Runtime: Java(TM) SE Runtime Environment
JVM: Java HotSpot(TM) 64-Bit Server VM
Default Encoding: UTF-8
Language: en
Country: US
--></g></svg>