<?xml version="1.0" encoding="UTF-8" standalone="no"?><svg xmlns="http://www.w3.org/2000/svg" xmlns:xlink="http://www.w3.org/1999/xlink" contentScriptType="application/ecmascript" contentStyleType="text/css" height="362px" preserveAspectRatio="none" style="width:832px;height:362px;background:#FFFFFF;" version="1.1" viewBox="0 0 832 362" width="832px" zoomAndPan="magnify"><defs><filter height="300%" id="f1xziy4gabzw4l" width="300%" x="-1" y="-1"><feGaussianBlur result="blurOut" stdDeviation="2.0"/><feColorMatrix in="blurOut" result="blurOut2" type="matrix" values="0 0 0 0 0 0 0 0 0 0 0 0 0 0 0 0 0 0 .4 0"/><feOffset dx="4.0" dy="4.0" in="blurOut2" result="blurOut3"/><feBlend in="SourceGraphic" in2="blurOut3" mode="normal"/></filter></defs><g><!--MD5=[aa8f7b917213fcc1c2766e2d59b49067]
cluster java.lang--><polygon fill="#FFFFFF" filter="url(#f1xziy4gabzw4l)" points="349,6,418,6,425,29.6094,507,29.6094,507,120,349,120,349,6" style="stroke:#000000;stroke-width:1.5;"/><line style="stroke:#000000;stroke-width:1.5;" x1="349" x2="425" y1="29.6094" y2="29.6094"/><text fill="#000000" font-family="sans-serif" font-size="14" font-weight="bold" lengthAdjust="spacing" textLength="63" x="353" y="22.5332">java.lang</text><!--MD5=[0c311de4a592f3c5f2bed0984ce064df]
cluster java.util.function--><polygon fill="#FFFFFF" filter="url(#f1xziy4gabzw4l)" points="531,6,654,6,661,29.6094,815,29.6094,815,120,531,120,531,6" style="stroke:#000000;stroke-width:1.5;"/><line style="stroke:#000000;stroke-width:1.5;" x1="531" x2="661" y1="29.6094" y2="29.6094"/><text fill="#000000" font-family="sans-serif" font-size="14" font-weight="bold" lengthAdjust="spacing" textLength="117" x="535" y="22.5332">java.util.function</text><!--MD5=[a85938c63302a5e81d6b03887db00592]
cluster de.thro.inf.prg3.a04.collections--><polygon fill="#FFFFFF" filter="url(#f1xziy4gabzw4l)" points="16,144,240,144,247,167.6094,574,167.6094,574,355,16,355,16,144" style="stroke:#000000;stroke-width:1.5;"/><line style="stroke:#000000;stroke-width:1.5;" x1="16" x2="247" y1="167.6094" y2="167.6094"/><text fill="#000000" font-family="sans-serif" font-size="14" font-weight="bold" lengthAdjust="spacing" textLength="218" x="20" y="160.5332">de.thro.inf.prg3.a04.collections</text><!--MD5=[47de47a8b5f06cbc5e036fae0a9149b7]
class Iterable--><rect codeLine="4" fill="#FEFECE" filter="url(#f1xziy4gabzw4l)" height="61.8359" id="Iterable" style="stroke:#A80036;stroke-width:1.5;" width="126" x="365" y="42"/><ellipse cx="393.05" cy="58" fill="#B4A7E5" rx="11" ry="11" style="stroke:#A80036;stroke-width:1.0;"/><path d="M394.05,55 L394.05,61 L396.05,61 L396.5344,61 L397.05,61.625 L397.05,62 L397.05,62.375 L396.5344,63 L396.05,63 L390.05,63 L389.5656,63 L389.05,62.375 L389.05,62 L389.05,61.625 L389.5656,61 L390.05,61 L392.05,61 L392.05,55 L390.05,55 L389.5656,55 L389.05,54.375 L389.05,54 L389.05,53.625 L389.5656,53 L390.05,53 L396.05,53 L396.5344,53 L397.05,53.625 L397.05,54 L397.05,54.375 L396.5344,55 L396.05,55 L394.05,55 Z " fill="#000000"/><ellipse cx="414.95" cy="57.5" fill="#84BE84" rx="3" ry="3" style="stroke:#038048;stroke-width:1.0;"/><text fill="#000000" font-family="sans-serif" font-size="12" font-style="italic" lengthAdjust="spacing" textLength="43" x="420.95" y="62.9102">Iterable</text><rect fill="#FFFFFF" height="17.0938" style="stroke:#000000;stroke-width:1.0;stroke-dasharray:2.0,2.0;" width="9" x="485" y="39"/><text fill="#000000" font-family="sans-serif" font-size="12" font-style="italic" lengthAdjust="spacing" textLength="7" x="486" y="52.457">T</text><line style="stroke:#A80036;stroke-width:1.5;" x1="366" x2="490" y1="74" y2="74"/><line style="stroke:#A80036;stroke-width:1.5;" x1="366" x2="490" y1="82" y2="82"/><ellipse cx="376" cy="93" fill="#84BE84" rx="3" ry="3" style="stroke:#038048;stroke-width:1.0;"/><text fill="#000000" font-family="sans-serif" font-size="11" lengthAdjust="spacing" textLength="100" x="385" y="97.4189">iterator(): Iterator&lt;T&gt;</text><!--MD5=[e6dc55dd324d6a8c189f3ada02b144fc]
class Predicate--><rect codeLine="11" fill="#FEFECE" filter="url(#f1xziy4gabzw4l)" height="61.8359" id="Predicate" style="stroke:#A80036;stroke-width:1.5;" width="111" x="687.5" y="42"/><ellipse cx="709.7" cy="58" fill="#B4A7E5" rx="11" ry="11" style="stroke:#A80036;stroke-width:1.0;"/><path d="M710.7,55 L710.7,61 L712.7,61 L713.1844,61 L713.7,61.625 L713.7,62 L713.7,62.375 L713.1844,63 L712.7,63 L706.7,63 L706.2156,63 L705.7,62.375 L705.7,62 L705.7,61.625 L706.2156,61 L706.7,61 L708.7,61 L708.7,55 L706.7,55 L706.2156,55 L705.7,54.375 L705.7,54 L705.7,53.625 L706.2156,53 L706.7,53 L712.7,53 L713.1844,53 L713.7,53.625 L713.7,54 L713.7,54.375 L713.1844,55 L712.7,55 L710.7,55 Z " fill="#000000"/><text fill="#000000" font-family="sans-serif" font-size="12" font-style="italic" lengthAdjust="spacing" textLength="52" x="725.3" y="62.9102">Predicate</text><rect fill="#FFFFFF" height="17.0938" style="stroke:#000000;stroke-width:1.0;stroke-dasharray:2.0,2.0;" width="9" x="792.5" y="39"/><text fill="#000000" font-family="sans-serif" font-size="12" font-style="italic" lengthAdjust="spacing" textLength="7" x="793.5" y="52.457">T</text><line style="stroke:#A80036;stroke-width:1.5;" x1="688.5" x2="797.5" y1="74" y2="74"/><line style="stroke:#A80036;stroke-width:1.5;" x1="688.5" x2="797.5" y1="82" y2="82"/><ellipse cx="698.5" cy="93" fill="#84BE84" rx="3" ry="3" style="stroke:#038048;stroke-width:1.0;"/><text fill="#000000" font-family="sans-serif" font-size="11" lengthAdjust="spacing" textLength="85" x="707.5" y="97.4189">test(t: T): boolean</text><!--MD5=[67ea9f8eb7ab97465d83c225b092f5fe]
class Consumer--><rect codeLine="15" fill="#FEFECE" filter="url(#f1xziy4gabzw4l)" height="61.8359" id="Consumer" style="stroke:#A80036;stroke-width:1.5;" width="105" x="547.5" y="42"/><ellipse cx="564.3" cy="58" fill="#B4A7E5" rx="11" ry="11" style="stroke:#A80036;stroke-width:1.0;"/><path d="M565.3,55 L565.3,61 L567.3,61 L567.7844,61 L568.3,61.625 L568.3,62 L568.3,62.375 L567.7844,63 L567.3,63 L561.3,63 L560.8156,63 L560.3,62.375 L560.3,62 L560.3,61.625 L560.8156,61 L561.3,61 L563.3,61 L563.3,55 L561.3,55 L560.8156,55 L560.3,54.375 L560.3,54 L560.3,53.625 L560.8156,53 L561.3,53 L567.3,53 L567.7844,53 L568.3,53.625 L568.3,54 L568.3,54.375 L567.7844,55 L567.3,55 L565.3,55 Z " fill="#000000"/><text fill="#000000" font-family="sans-serif" font-size="12" font-style="italic" lengthAdjust="spacing" textLength="58" x="578.7" y="62.9102">Consumer</text><rect fill="#FFFFFF" height="17.0938" style="stroke:#000000;stroke-width:1.0;stroke-dasharray:2.0,2.0;" width="9" x="646.5" y="39"/><text fill="#000000" font-family="sans-serif" font-size="12" font-style="italic" lengthAdjust="spacing" textLength="7" x="647.5" y="52.457">T</text><line style="stroke:#A80036;stroke-width:1.5;" x1="548.5" x2="651.5" y1="74" y2="74"/><line style="stroke:#A80036;stroke-width:1.5;" x1="548.5" x2="651.5" y1="82" y2="82"/><ellipse cx="558.5" cy="93" fill="#84BE84" rx="3" ry="3" style="stroke:#038048;stroke-width:1.0;"/><text fill="#000000" font-family="sans-serif" font-size="11" lengthAdjust="spacing" textLength="79" x="567.5" y="97.4189">accept(T t): void</text><!--MD5=[2fc307995a77e1ff0d3f050568daae73]
class SimpleList--><rect codeLine="23" fill="#FEFECE" filter="url(#f1xziy4gabzw4l)" height="158.6875" id="SimpleList" style="stroke:#A80036;stroke-width:1.5;" width="259" x="298.5" y="180"/><ellipse cx="389.25" cy="196" fill="#B4A7E5" rx="11" ry="11" style="stroke:#A80036;stroke-width:1.0;"/><path d="M390.25,193 L390.25,199 L392.25,199 L392.7344,199 L393.25,199.625 L393.25,200 L393.25,200.375 L392.7344,201 L392.25,201 L386.25,201 L385.7656,201 L385.25,200.375 L385.25,200 L385.25,199.625 L385.7656,199 L386.25,199 L388.25,199 L388.25,193 L386.25,193 L385.7656,193 L385.25,192.375 L385.25,192 L385.25,191.625 L385.7656,191 L386.25,191 L392.25,191 L392.7344,191 L393.25,191.625 L393.25,192 L393.25,192.375 L392.7344,193 L392.25,193 L390.25,193 Z " fill="#000000"/><text fill="#000000" font-family="sans-serif" font-size="12" font-style="italic" lengthAdjust="spacing" textLength="58" x="409.75" y="200.9102">SimpleList</text><rect fill="#FFFFFF" height="17.0938" style="stroke:#000000;stroke-width:1.0;stroke-dasharray:2.0,2.0;" width="9" x="551.5" y="177"/><text fill="#000000" font-family="sans-serif" font-size="12" font-style="italic" lengthAdjust="spacing" textLength="7" x="552.5" y="190.457">T</text><line style="stroke:#A80036;stroke-width:1.5;" x1="299.5" x2="556.5" y1="212" y2="212"/><line style="stroke:#A80036;stroke-width:1.5;" x1="299.5" x2="556.5" y1="220" y2="220"/><ellipse cx="309.5" cy="231" fill="#84BE84" rx="3" ry="3" style="stroke:#038048;stroke-width:1.0;"/><text fill="#000000" font-family="sans-serif" font-size="11" lengthAdjust="spacing" textLength="57" x="318.5" y="235.4189">add(item: T)</text><ellipse cx="309.5" cy="244.8359" fill="#84BE84" rx="3" ry="3" style="stroke:#038048;stroke-width:1.0;"/><text fill="#000000" font-family="sans-serif" font-size="11" lengthAdjust="spacing" textLength="78" x="318.5" y="249.2549">get(index: int): T</text><ellipse cx="309.5" cy="258.6719" fill="#84BE84" rx="3" ry="3" style="stroke:#038048;stroke-width:1.0;"/><text fill="#000000" font-family="sans-serif" font-size="11" lengthAdjust="spacing" textLength="126" x="318.5" y="263.0908">void set(index: int, item: T)</text><ellipse cx="309.5" cy="272.5078" fill="#84BE84" rx="3" ry="3" style="stroke:#038048;stroke-width:1.0;"/><text fill="#000000" font-family="sans-serif" font-size="11" lengthAdjust="spacing" textLength="137" x="318.5" y="276.9268">addDefault(clazz: Class&lt;T&gt;)</text><ellipse cx="309.5" cy="286.3438" fill="#84BE84" rx="3" ry="3" style="stroke:#038048;stroke-width:1.0;"/><text fill="#000000" font-family="sans-serif" font-size="11" lengthAdjust="spacing" textLength="146" x="318.5" y="290.7627">makeInstance(): SimpleList&lt;T&gt;</text><ellipse cx="309.5" cy="300.1797" fill="#84BE84" rx="3" ry="3" style="stroke:#038048;stroke-width:1.0;"/><text fill="#000000" font-family="sans-serif" font-size="11" lengthAdjust="spacing" textLength="45" x="318.5" y="304.5986">size(): int</text><ellipse cx="309.5" cy="314.0156" fill="#84BE84" rx="3" ry="3" style="stroke:#038048;stroke-width:1.0;"/><text fill="#000000" font-family="sans-serif" font-size="11" lengthAdjust="spacing" textLength="215" x="318.5" y="318.4346">filter(predicate: Predicate&lt;T&gt;): SimpleList&lt;T&gt;</text><ellipse cx="309.5" cy="327.8516" fill="#84BE84" rx="3" ry="3" style="stroke:#038048;stroke-width:1.0;"/><text fill="#000000" font-family="sans-serif" font-size="11" lengthAdjust="spacing" textLength="233" x="318.5" y="332.2705">forEach(consumer: Consumer&lt;? super T&gt;): void</text><!--MD5=[388270dc4be8db2afcf6c2000923add7]
class CollectionsUtility--><rect codeLine="34" fill="#FEFECE" filter="url(#f1xziy4gabzw4l)" height="61.8359" id="CollectionsUtility" style="stroke:#A80036;stroke-width:1.5;" width="231" x="32.5" y="228.5"/><ellipse cx="92.75" cy="244.5" fill="#A9DCDF" rx="11" ry="11" style="stroke:#A80036;stroke-width:1.0;"/><path d="M94.5,246 L91.2031,246 L90.7656,247 L90.7656,247 L91.2344,247 L91.75,247.625 L91.75,248 L91.75,248.375 L91.2344,249 L90.7656,249 L88.875,249 L88.2656,249 L87.75,248.375 L87.75,248 L87.75,247.625 L88.2656,247 L88.875,247 L91.1875,241 L90.3125,241 L89.2656,241 L88.75,240.375 L88.75,240 L88.75,239.625 L89.2656,239 L90.3125,239 L93.9844,239 L96.6719,247 L97.2344,247 L97.2344,247 L97.75,247.625 L97.75,248 L97.75,248.375 L97.2344,249 L96.6719,249 L94.7813,249 L94.2656,249 L93.75,248.375 L93.75,248 L93.75,247.625 L94.2656,247 L94.7813,247 L94.7813,247 L94.5,246 Z M93.9531,244 L92.75,240.4219 L91.7188,244 L93.9531,244 Z " fill="#000000"/><ellipse cx="118.25" cy="244" fill="#84BE84" rx="3" ry="3" style="stroke:#038048;stroke-width:1.0;"/><text fill="#000000" font-family="sans-serif" font-size="12" font-style="italic" lengthAdjust="spacing" textLength="91" x="124.25" y="249.4102">CollectionsUtility</text><line style="stroke:#A80036;stroke-width:1.5;" x1="33.5" x2="262.5" y1="260.5" y2="260.5"/><line style="stroke:#A80036;stroke-width:1.5;" x1="33.5" x2="262.5" y1="268.5" y2="268.5"/><ellipse cx="43.5" cy="279.5" fill="#84BE84" rx="3" ry="3" style="stroke:#038048;stroke-width:1.0;"/><text fill="#000000" font-family="sans-serif" font-size="11" lengthAdjust="spacing" text-decoration="underline" textLength="205" x="52.5" y="283.9189">&lt;T&gt; sort(list: SimpleList&lt;T&gt;): SimpleList&lt;T&gt;</text><!--MD5=[2e21931a002b1ae8fac06f0aac5056ca]
reverse link Iterable to SimpleList--><path d="M428,124.23 C428,141.4 428,161.03 428,179.89 " fill="none" id="Iterable-backto-SimpleList" style="stroke:#A80036;stroke-width:1.0;"/><polygon fill="none" points="421,124.05,428,104.05,435,124.05,421,124.05" style="stroke:#A80036;stroke-width:1.0;"/><!--MD5=[bdd341c3a33d6e8db68d083c13fafb37]
@startuml

package java.lang {

    +interface Iterable<T> {
        +iterator(): Iterator<T>
    }
}

package java.util.function {

     interface Predicate<T> {
        +test(t: T): boolean
        }

     interface Consumer<T> {
        +accept(T t): void
     }

}

package de.thro.inf.prg3.a04.collections {

    interface SimpleList<T> extends Iterable {
                +add(item: T)
                +get(index: int): T
                +void set(index: int, item: T)
                +addDefault(clazz: Class<T>)
                +makeInstance(): SimpleList<T>
                +size(): int
                +filter(predicate: Predicate<T>): SimpleList<T>
                +forEach(consumer: Consumer<? super T>): void
            }

    +abstract class CollectionsUtility {
        +{static}<T> sort(list: SimpleList<T>): SimpleList<T>
}
@enduml

PlantUML version 1.2021.7(Sun May 23 14:40:07 CEST 2021)
(GPL source distribution)
Java Runtime: OpenJDK Runtime Environment
JVM: OpenJDK 64-Bit Server VM
Default Encoding: Cp1252
Language: de
Country: DE
--></g></svg>