<?xml version="1.0" encoding="UTF-8" standalone="no"?><svg xmlns="http://www.w3.org/2000/svg" xmlns:xlink="http://www.w3.org/1999/xlink" contentScriptType="application/ecmascript" contentStyleType="text/css" height="155px" preserveAspectRatio="none" style="width:539px;height:155px;background:#FFFFFF;" version="1.1" viewBox="0 0 539 155" width="539px" zoomAndPan="magnify"><defs><filter height="300%" id="fft8fikfxjgyk" width="300%" x="-1" y="-1"><feGaussianBlur result="blurOut" stdDeviation="2.0"/><feColorMatrix in="blurOut" result="blurOut2" type="matrix" values="0 0 0 0 0 0 0 0 0 0 0 0 0 0 0 0 0 0 .4 0"/><feOffset dx="4.0" dy="4.0" in="blurOut2" result="blurOut3"/><feBlend in="SourceGraphic" in2="blurOut3" mode="normal"/></filter></defs><g><!--MD5=[1e3c2009328c5b847eacf67be6c34803]
cluster de.thro.inf.prg3.a04.utils--><polygon fill="#FFFFFF" filter="url(#fft8fikfxjgyk)" points="16,6,193,6,200,29.6094,522,29.6094,522,148,16,148,16,6" style="stroke:#000000;stroke-width:1.5;"/><line style="stroke:#000000;stroke-width:1.5;" x1="16" x2="200" y1="29.6094" y2="29.6094"/><text fill="#000000" font-family="sans-serif" font-size="14" font-weight="bold" lengthAdjust="spacing" textLength="171" x="20" y="22.5332">de.thro.inf.prg3.a04.utils</text><!--MD5=[d0c487c110aca509aadeca86ea00880f]
class PlantBedUtility--><rect codeLine="3" fill="#FEFECE" filter="url(#fft8fikfxjgyk)" height="89.5078" id="PlantBedUtility" style="stroke:#A80036;stroke-width:1.5;" width="474" x="32" y="42"/><ellipse cx="219.25" cy="58" fill="#A9DCDF" rx="11" ry="11" style="stroke:#A80036;stroke-width:1.0;"/><path d="M221,59.5 L217.7031,59.5 L217.2656,60.5 L217.2656,60.5 L217.7344,60.5 L218.25,61.125 L218.25,61.5 L218.25,61.875 L217.7344,62.5 L217.2656,62.5 L215.375,62.5 L214.7656,62.5 L214.25,61.875 L214.25,61.5 L214.25,61.125 L214.7656,60.5 L215.375,60.5 L217.6875,54.5 L216.8125,54.5 L215.7656,54.5 L215.25,53.875 L215.25,53.5 L215.25,53.125 L215.7656,52.5 L216.8125,52.5 L220.4844,52.5 L223.1719,60.5 L223.7344,60.5 L223.7344,60.5 L224.25,61.125 L224.25,61.5 L224.25,61.875 L223.7344,62.5 L223.1719,62.5 L221.2813,62.5 L220.7656,62.5 L220.25,61.875 L220.25,61.5 L220.25,61.125 L220.7656,60.5 L221.2813,60.5 L221.2813,60.5 L221,59.5 Z M220.4531,57.5 L219.25,53.9219 L218.2188,57.5 L220.4531,57.5 Z " fill="#000000"/><ellipse cx="244.75" cy="57.5" fill="#84BE84" rx="3" ry="3" style="stroke:#038048;stroke-width:1.0;"/><text fill="#000000" font-family="sans-serif" font-size="12" font-style="italic" lengthAdjust="spacing" textLength="80" x="250.75" y="62.9102">PlantBedUtility</text><line style="stroke:#A80036;stroke-width:1.5;" x1="33" x2="505" y1="74" y2="74"/><line style="stroke:#A80036;stroke-width:1.5;" x1="33" x2="505" y1="82" y2="82"/><ellipse cx="43" cy="93" fill="#84BE84" rx="3" ry="3" style="stroke:#038048;stroke-width:1.0;"/><text fill="#000000" font-family="sans-serif" font-size="11" lengthAdjust="spacing" text-decoration="underline" textLength="350" x="52" y="97.4189">&lt;T&gt; splitBedByColor(bed: PlantBed&lt;T&gt;) : Map&lt;PlantColor, SimpleList&lt;T&gt;&gt;</text><ellipse cx="43" cy="106.8359" fill="#84BE84" rx="3" ry="3" style="stroke:#038048;stroke-width:1.0;"/><text fill="#000000" font-family="sans-serif" font-size="11" lengthAdjust="spacing" text-decoration="underline" textLength="284" x="52" y="111.2549">&lt;T&gt; pecs(dest: SimpleList&lt;T&gt;, source: SimpleList&lt;T&gt;): void</text><ellipse cx="43" cy="120.6719" fill="#84BE84" rx="3" ry="3" style="stroke:#038048;stroke-width:1.0;"/><text fill="#000000" font-family="sans-serif" font-size="11" lengthAdjust="spacing" text-decoration="underline" textLength="448" x="52" y="125.0908">&lt;T&gt; pecsWithFilter(dest: SimpleList&lt;T&gt;, source: SimpleList&lt;T&gt;, predicate: Predicate&lt;T&gt;): void</text><!--MD5=[641735065bfaf2d239f15709a1b6cc02]
@startuml
package de.thro.inf.prg3.a04.utils {

    +abstract class PlantBedUtility{
        +{static} <T> splitBedByColor(bed: PlantBed<T>) : Map<PlantColor, SimpleList<T>>
        +{static}<T> pecs(dest: SimpleList<T>, source: SimpleList<T>): void
        +{static}<T> pecsWithFilter(dest: SimpleList<T>, source: SimpleList<T>, predicate: Predicate<T>): void
    }
}
@enduml

PlantUML version 1.2021.7(Sun May 23 14:40:07 CEST 2021)
(GPL source distribution)
Java Runtime: OpenJDK Runtime Environment
JVM: OpenJDK 64-Bit Server VM
Default Encoding: Cp1252
Language: de
Country: DE
--></g></svg>