<?xml version="1.0" encoding="UTF-8" standalone="no"?><svg xmlns="http://www.w3.org/2000/svg" xmlns:xlink="http://www.w3.org/1999/xlink" contentScriptType="application/ecmascript" contentStyleType="text/css" height="182px" preserveAspectRatio="none" style="width:331px;height:182px;background:#FFFFFF;" version="1.1" viewBox="0 0 331 182" width="331px" zoomAndPan="magnify"><defs><filter height="300%" id="fl90xcidh4v1l" width="300%" x="-1" y="-1"><feGaussianBlur result="blurOut" stdDeviation="2.0"/><feColorMatrix in="blurOut" result="blurOut2" type="matrix" values="0 0 0 0 0 0 0 0 0 0 0 0 0 0 0 0 0 0 .4 0"/><feOffset dx="4.0" dy="4.0" in="blurOut2" result="blurOut3"/><feBlend in="SourceGraphic" in2="blurOut3" mode="normal"/></filter></defs><g><!--MD5=[f6ffc997154783ff2d04a6d666c19e43]
cluster de.thro.inf.prg3.a04.model--><polygon fill="#FFFFFF" filter="url(#fl90xcidh4v1l)" points="16,6,206,6,213,29.6094,314,29.6094,314,175,16,175,16,6" style="stroke:#000000;stroke-width:1.5;"/><line style="stroke:#000000;stroke-width:1.5;" x1="16" x2="213" y1="29.6094" y2="29.6094"/><text fill="#000000" font-family="sans-serif" font-size="14" font-weight="bold" lengthAdjust="spacing" textLength="184" x="20" y="22.5332">de.thro.inf.prg3.a04.model</text><!--MD5=[de2e620b2c75447f2c35f071673aaf4a]
class PlantBed--><rect codeLine="3" fill="#FEFECE" filter="url(#fl90xcidh4v1l)" height="117.1797" id="PlantBed" style="stroke:#A80036;stroke-width:1.5;" width="266" x="32" y="42"/><ellipse cx="124.75" cy="58" fill="#ADD1B2" rx="11" ry="11" style="stroke:#A80036;stroke-width:1.0;"/><path d="M126.75,54.5 Q126.9531,54 127.1875,53.75 Q127.4219,53.5 127.6875,53.5 Q128.1563,53.5 128.4531,53.7813 Q128.75,54.0625 128.75,54.7188 L128.75,56.2813 Q128.75,56.9375 128.4688,57.2188 Q128.1875,57.5 127.75,57.5 Q127.3594,57.5 127.1094,57.3281 Q126.8594,57.1563 126.75,56.7031 Q126.7031,56.3906 126.5313,56.2188 Q126.2188,55.8906 125.6563,55.7031 Q125.0938,55.5 124.5313,55.5 Q123.8281,55.5 123.2344,55.7813 Q122.6563,56.0625 122.2031,56.6875 Q121.75,57.3125 121.75,58.1719 L121.75,59.0938 Q121.75,60.125 122.5938,60.8125 Q123.4375,61.5 124.9375,61.5 Q125.8281,61.5 126.4531,61.2969 Q126.8125,61.1875 127.2188,60.8281 Q127.4844,60.625 127.625,60.5625 Q127.7656,60.5 127.9375,60.5 Q128.2656,60.5 128.5,60.7656 Q128.75,61.0156 128.75,61.375 Q128.75,61.7188 128.4063,62.125 Q127.9063,62.7188 127.1094,63.0469 Q126.0625,63.5 124.7813,63.5 Q123.2813,63.5 122.0781,62.9063 Q121.1094,62.4375 120.4219,61.4219 Q119.75,60.4063 119.75,59.2031 L119.75,58.1094 Q119.75,56.8594 120.3438,55.7656 Q120.9531,54.6719 122,54.0938 Q123.0625,53.5 124.25,53.5 Q124.9688,53.5 125.5938,53.75 Q126.2188,54 126.75,54.5 Z " fill="#000000"/><ellipse cx="150.25" cy="57.5" fill="#84BE84" rx="3" ry="3" style="stroke:#038048;stroke-width:1.0;"/><text fill="#000000" font-family="sans-serif" font-size="12" lengthAdjust="spacing" textLength="50" x="156.25" y="62.9102">PlantBed</text><rect fill="#FFFFFF" height="17.0938" style="stroke:#000000;stroke-width:1.0;stroke-dasharray:2.0,2.0;" width="9" x="292" y="39"/><text fill="#000000" font-family="sans-serif" font-size="12" font-style="italic" lengthAdjust="spacing" textLength="7" x="293" y="52.457">T</text><line style="stroke:#A80036;stroke-width:1.5;" x1="33" x2="297" y1="74" y2="74"/><rect fill="none" height="6" style="stroke:#C82930;stroke-width:1.0;" width="6" x="40" y="82"/><text fill="#000000" font-family="sans-serif" font-size="11" lengthAdjust="spacing" textLength="101" x="52" y="89.4189">plants: SimpleList&lt;T&gt;</text><line style="stroke:#A80036;stroke-width:1.5;" x1="33" x2="297" y1="95.8359" y2="95.8359"/><ellipse cx="43" cy="106.8359" fill="#84BE84" rx="3" ry="3" style="stroke:#038048;stroke-width:1.0;"/><text fill="#000000" font-family="sans-serif" font-size="11" lengthAdjust="spacing" textLength="61" x="52" y="111.2549">add(plant: T)</text><ellipse cx="43" cy="120.6719" fill="#84BE84" rx="3" ry="3" style="stroke:#038048;stroke-width:1.0;"/><text fill="#000000" font-family="sans-serif" font-size="11" lengthAdjust="spacing" textLength="45" x="52" y="125.0908">size(): int</text><ellipse cx="43" cy="134.5078" fill="#84BE84" rx="3" ry="3" style="stroke:#038048;stroke-width:1.0;"/><text fill="#000000" font-family="sans-serif" font-size="11" lengthAdjust="spacing" textLength="240" x="52" y="138.9268">getPlantsByColor(color: PlantColor): SimpleList&lt;T&gt;</text><ellipse cx="43" cy="148.3438" fill="#84BE84" rx="3" ry="3" style="stroke:#038048;stroke-width:1.0;"/><text fill="#000000" font-family="sans-serif" font-size="11" lengthAdjust="spacing" textLength="124" x="52" y="152.7627">getPlants(): SimpleList&lt;T&gt;</text><!--MD5=[70c7f561d146daf852f7888d70a3ebf6]
@startuml
package de.thro.inf.prg3.a04.model {

    +class PlantBed<T> {
        -plants: SimpleList<T>

        +add(plant: T)
        +size(): int
        +getPlantsByColor(color: PlantColor): SimpleList<T>
        +getPlants(): SimpleList<T>
    }
}
@enduml

PlantUML version 1.2021.7(Sun May 23 14:40:07 CEST 2021)
(GPL source distribution)
Java Runtime: OpenJDK Runtime Environment
JVM: OpenJDK 64-Bit Server VM
Default Encoding: Cp1252
Language: de
Country: DE
--></g></svg>