<?xml version="1.0" encoding="UTF-8" standalone="no"?><svg xmlns="http://www.w3.org/2000/svg" xmlns:xlink="http://www.w3.org/1999/xlink" contentScriptType="application/ecmascript" contentStyleType="text/css" height="456px" preserveAspectRatio="none" style="width:340px;height:456px;background:#FFFFFF;" version="1.1" viewBox="0 0 340 456" width="340px" zoomAndPan="magnify"><defs><filter height="300%" id="fupnzspkh453g" width="300%" x="-1" y="-1"><feGaussianBlur result="blurOut" stdDeviation="2.0"/><feColorMatrix in="blurOut" result="blurOut2" type="matrix" values="0 0 0 0 0 0 0 0 0 0 0 0 0 0 0 0 0 0 .4 0"/><feOffset dx="4.0" dy="4.0" in="blurOut2" result="blurOut3"/><feBlend in="SourceGraphic" in2="blurOut3" mode="normal"/></filter></defs><g><!--MD5=[aa8f7b917213fcc1c2766e2d59b49067]
cluster java.lang--><polygon fill="#FFFFFF" filter="url(#fupnzspkh453g)" points="16,6,85,6,92,29.6094,190,29.6094,190,120,16,120,16,6" style="stroke:#000000;stroke-width:1.5;"/><line style="stroke:#000000;stroke-width:1.5;" x1="16" x2="92" y1="29.6094" y2="29.6094"/><text fill="#000000" font-family="sans-serif" font-size="14" font-weight="bold" lengthAdjust="spacing" textLength="63" x="20" y="22.5332">java.lang</text><!--MD5=[f6ffc997154783ff2d04a6d666c19e43]
cluster de.thro.inf.prg3.a04.model--><polygon fill="#FFFFFF" filter="url(#fupnzspkh453g)" points="20,144,210,144,217,167.6094,323,167.6094,323,449,20,449,20,144" style="stroke:#000000;stroke-width:1.5;"/><line style="stroke:#000000;stroke-width:1.5;" x1="20" x2="217" y1="167.6094" y2="167.6094"/><text fill="#000000" font-family="sans-serif" font-size="14" font-weight="bold" lengthAdjust="spacing" textLength="184" x="24" y="160.5332">de.thro.inf.prg3.a04.model</text><!--MD5=[7a4729d26b999f6a4650b01106c103c5]
class Comparable--><rect codeLine="3" fill="#FEFECE" filter="url(#fupnzspkh453g)" height="61.8359" id="Comparable" style="stroke:#A80036;stroke-width:1.5;" width="142" x="32" y="42"/><ellipse cx="60.05" cy="58" fill="#B4A7E5" rx="11" ry="11" style="stroke:#A80036;stroke-width:1.0;"/><path d="M61.05,55 L61.05,61 L63.05,61 L63.5344,61 L64.05,61.625 L64.05,62 L64.05,62.375 L63.5344,63 L63.05,63 L57.05,63 L56.5656,63 L56.05,62.375 L56.05,62 L56.05,61.625 L56.5656,61 L57.05,61 L59.05,61 L59.05,55 L57.05,55 L56.5656,55 L56.05,54.375 L56.05,54 L56.05,53.625 L56.5656,53 L57.05,53 L63.05,53 L63.5344,53 L64.05,53.625 L64.05,54 L64.05,54.375 L63.5344,55 L63.05,55 L61.05,55 Z " fill="#000000"/><text fill="#000000" font-family="sans-serif" font-size="12" font-style="italic" lengthAdjust="spacing" textLength="70" x="76.95" y="62.9102">Comparable</text><rect fill="#FFFFFF" height="17.0938" style="stroke:#000000;stroke-width:1.0;stroke-dasharray:2.0,2.0;" width="9" x="168" y="39"/><text fill="#000000" font-family="sans-serif" font-size="12" font-style="italic" lengthAdjust="spacing" textLength="7" x="169" y="52.457">T</text><line style="stroke:#A80036;stroke-width:1.5;" x1="33" x2="173" y1="74" y2="74"/><line style="stroke:#A80036;stroke-width:1.5;" x1="33" x2="173" y1="82" y2="82"/><ellipse cx="43" cy="93" fill="#84BE84" rx="3" ry="3" style="stroke:#038048;stroke-width:1.0;"/><text fill="#000000" font-family="sans-serif" font-size="11" lengthAdjust="spacing" textLength="116" x="52" y="97.4189">compareTo(other: T): int</text><!--MD5=[d20e526628fb20166bdce976d866650a]
class PlantColor--><rect codeLine="9" fill="#FEFECE" filter="url(#fupnzspkh453g)" height="131.0156" id="PlantColor" style="stroke:#A80036;stroke-width:1.5;" width="101" x="205.5" y="187"/><ellipse cx="220.5" cy="203" fill="#EB937F" rx="11" ry="11" style="stroke:#A80036;stroke-width:1.0;"/><path d="M219,204 L219,206 L223,206 L223,205 L223,204.5156 L223.625,204 L224,204 L224.375,204 L225,204.5156 L225,205 L225,208 L217,208 L216.5156,208 L216,207.375 L216,207 L216,206.625 L216.5156,206 L217,206 L217,206 L217,200 L217,200 L216.5156,200 L216,199.375 L216,199 L216,198.625 L216.5156,198 L217,198 L225,198 L225,201 L225,201.4844 L224.375,202 L224,202 L223.625,202 L223,201.4844 L223,201 L223,200 L219,200 L219,202 L220,202 L220,201.5156 L220,201.5156 L220.625,201 L221,201 L221.375,201 L222,201.5156 L222,202 L222,204 L222,204.4844 L221.375,205 L221.375,205 L221,205 L220.625,205 L220,204.4844 L220,204.4844 L220,204 L219,204 Z " fill="#000000"/><ellipse cx="239.5" cy="202.5" fill="#84BE84" rx="3" ry="3" style="stroke:#038048;stroke-width:1.0;"/><text fill="#000000" font-family="sans-serif" font-size="12" lengthAdjust="spacing" textLength="58" x="245.5" y="207.9102">PlantColor</text><line style="stroke:#A80036;stroke-width:1.5;" x1="206.5" x2="305.5" y1="219" y2="219"/><text fill="#000000" font-family="sans-serif" font-size="11" lengthAdjust="spacing" textLength="37" x="211.5" y="234.4189">GREEN,</text><text fill="#000000" font-family="sans-serif" font-size="11" lengthAdjust="spacing" textLength="47" x="211.5" y="248.2549">YELLOW,</text><text fill="#000000" font-family="sans-serif" font-size="11" lengthAdjust="spacing" textLength="23" x="211.5" y="262.0908">RED,</text><text fill="#000000" font-family="sans-serif" font-size="11" lengthAdjust="spacing" textLength="29" x="211.5" y="275.9268">BLUE,</text><text fill="#000000" font-family="sans-serif" font-size="11" lengthAdjust="spacing" textLength="47" x="211.5" y="289.7627">ORANGE,</text><text fill="#000000" font-family="sans-serif" font-size="11" lengthAdjust="spacing" textLength="48" x="211.5" y="303.5986">VIOLETTE</text><line style="stroke:#A80036;stroke-width:1.5;" x1="206.5" x2="305.5" y1="310.0156" y2="310.0156"/><!--MD5=[77e0b605413a3de2ffd2565e3731112d]
class Plant--><rect codeLine="18" fill="#FEFECE" filter="url(#fupnzspkh453g)" height="144.8516" id="Plant" style="stroke:#A80036;stroke-width:1.5;" width="134" x="36" y="180"/><ellipse cx="79.35" cy="196" fill="#A9DCDF" rx="11" ry="11" style="stroke:#A80036;stroke-width:1.0;"/><path d="M81.1,197.5 L77.8031,197.5 L77.3656,198.5 L77.3656,198.5 L77.8344,198.5 L78.35,199.125 L78.35,199.5 L78.35,199.875 L77.8344,200.5 L77.3656,200.5 L75.475,200.5 L74.8656,200.5 L74.35,199.875 L74.35,199.5 L74.35,199.125 L74.8656,198.5 L75.475,198.5 L77.7875,192.5 L76.9125,192.5 L75.8656,192.5 L75.35,191.875 L75.35,191.5 L75.35,191.125 L75.8656,190.5 L76.9125,190.5 L80.5844,190.5 L83.2719,198.5 L83.8344,198.5 L83.8344,198.5 L84.35,199.125 L84.35,199.5 L84.35,199.875 L83.8344,200.5 L83.2719,200.5 L81.3813,200.5 L80.8656,200.5 L80.35,199.875 L80.35,199.5 L80.35,199.125 L80.8656,198.5 L81.3813,198.5 L81.3813,198.5 L81.1,197.5 Z M80.5531,195.5 L79.35,191.9219 L78.3188,195.5 L80.5531,195.5 Z " fill="#000000"/><ellipse cx="104.65" cy="195.5" fill="#84BE84" rx="3" ry="3" style="stroke:#038048;stroke-width:1.0;"/><text fill="#000000" font-family="sans-serif" font-size="12" font-style="italic" lengthAdjust="spacing" textLength="28" x="110.65" y="200.9102">Plant</text><line style="stroke:#A80036;stroke-width:1.5;" x1="37" x2="169" y1="212" y2="212"/><rect fill="none" height="6" style="stroke:#C82930;stroke-width:1.0;" width="6" x="44" y="220"/><text fill="#000000" font-family="sans-serif" font-size="11" lengthAdjust="spacing" textLength="67" x="56" y="227.4189">height: double</text><rect fill="none" height="6" style="stroke:#C82930;stroke-width:1.0;" width="6" x="44" y="233.8359"/><text fill="#000000" font-family="sans-serif" font-size="11" lengthAdjust="spacing" textLength="62" x="56" y="241.2549">family: String</text><rect fill="none" height="6" style="stroke:#C82930;stroke-width:1.0;" width="6" x="44" y="247.6719"/><text fill="#000000" font-family="sans-serif" font-size="11" lengthAdjust="spacing" textLength="60" x="56" y="255.0908">name: String</text><line style="stroke:#A80036;stroke-width:1.5;" x1="37" x2="169" y1="261.5078" y2="261.5078"/><ellipse cx="47" cy="272.5078" fill="#84BE84" rx="3" ry="3" style="stroke:#038048;stroke-width:1.0;"/><text fill="#000000" font-family="sans-serif" font-size="11" lengthAdjust="spacing" textLength="91" x="56" y="276.9268">getHeight(): double</text><ellipse cx="47" cy="286.3438" fill="#84BE84" rx="3" ry="3" style="stroke:#038048;stroke-width:1.0;"/><text fill="#000000" font-family="sans-serif" font-size="11" lengthAdjust="spacing" textLength="87" x="56" y="290.7627">getFamily(): String</text><ellipse cx="47" cy="300.1797" fill="#84BE84" rx="3" ry="3" style="stroke:#038048;stroke-width:1.0;"/><text fill="#000000" font-family="sans-serif" font-size="11" lengthAdjust="spacing" textLength="84" x="56" y="304.5986">getName(): String</text><ellipse cx="47" cy="314.0156" fill="#84BE84" rx="3" ry="3" style="stroke:#038048;stroke-width:1.0;"/><text fill="#000000" font-family="sans-serif" font-size="11" font-style="italic" lengthAdjust="spacing" textLength="108" x="56" y="318.4346">getColor(): PlantColor</text><!--MD5=[30555ea95f143207df01651410a26179]
class Flower--><rect codeLine="29" fill="#FEFECE" filter="url(#fupnzspkh453g)" height="48" id="Flower" style="stroke:#A80036;stroke-width:1.5;" width="80" x="49" y="385"/><ellipse cx="64" cy="401" fill="#ADD1B2" rx="11" ry="11" style="stroke:#A80036;stroke-width:1.0;"/><path d="M66,397.5 Q66.2031,397 66.4375,396.75 Q66.6719,396.5 66.9375,396.5 Q67.4063,396.5 67.7031,396.7813 Q68,397.0625 68,397.7188 L68,399.2813 Q68,399.9375 67.7188,400.2188 Q67.4375,400.5 67,400.5 Q66.6094,400.5 66.3594,400.3281 Q66.1094,400.1563 66,399.7031 Q65.9531,399.3906 65.7813,399.2188 Q65.4688,398.8906 64.9063,398.7031 Q64.3438,398.5 63.7813,398.5 Q63.0781,398.5 62.4844,398.7813 Q61.9063,399.0625 61.4531,399.6875 Q61,400.3125 61,401.1719 L61,402.0938 Q61,403.125 61.8438,403.8125 Q62.6875,404.5 64.1875,404.5 Q65.0781,404.5 65.7031,404.2969 Q66.0625,404.1875 66.4688,403.8281 Q66.7344,403.625 66.875,403.5625 Q67.0156,403.5 67.1875,403.5 Q67.5156,403.5 67.75,403.7656 Q68,404.0156 68,404.375 Q68,404.7188 67.6563,405.125 Q67.1563,405.7188 66.3594,406.0469 Q65.3125,406.5 64.0313,406.5 Q62.5313,406.5 61.3281,405.9063 Q60.3594,405.4375 59.6719,404.4219 Q59,403.4063 59,402.2031 L59,401.1094 Q59,399.8594 59.5938,398.7656 Q60.2031,397.6719 61.25,397.0938 Q62.3125,396.5 63.5,396.5 Q64.2188,396.5 64.8438,396.75 Q65.4688,397 66,397.5 Z " fill="#000000"/><ellipse cx="83" cy="400.5" fill="#84BE84" rx="3" ry="3" style="stroke:#038048;stroke-width:1.0;"/><text fill="#000000" font-family="sans-serif" font-size="12" lengthAdjust="spacing" textLength="37" x="89" y="405.9102">Flower</text><line style="stroke:#A80036;stroke-width:1.5;" x1="50" x2="128" y1="417" y2="417"/><line style="stroke:#A80036;stroke-width:1.5;" x1="50" x2="128" y1="425" y2="425"/><!--MD5=[a421c1549c6c20467ff83a1aad50aeb7]
class Shrub--><rect codeLine="32" fill="#FEFECE" filter="url(#fupnzspkh453g)" height="48" id="Shrub" style="stroke:#A80036;stroke-width:1.5;" width="76" x="164" y="385"/><ellipse cx="179" cy="401" fill="#ADD1B2" rx="11" ry="11" style="stroke:#A80036;stroke-width:1.0;"/><path d="M181,397.5 Q181.2031,397 181.4375,396.75 Q181.6719,396.5 181.9375,396.5 Q182.4063,396.5 182.7031,396.7813 Q183,397.0625 183,397.7188 L183,399.2813 Q183,399.9375 182.7188,400.2188 Q182.4375,400.5 182,400.5 Q181.6094,400.5 181.3594,400.3281 Q181.1094,400.1563 181,399.7031 Q180.9531,399.3906 180.7813,399.2188 Q180.4688,398.8906 179.9063,398.7031 Q179.3438,398.5 178.7813,398.5 Q178.0781,398.5 177.4844,398.7813 Q176.9063,399.0625 176.4531,399.6875 Q176,400.3125 176,401.1719 L176,402.0938 Q176,403.125 176.8438,403.8125 Q177.6875,404.5 179.1875,404.5 Q180.0781,404.5 180.7031,404.2969 Q181.0625,404.1875 181.4688,403.8281 Q181.7344,403.625 181.875,403.5625 Q182.0156,403.5 182.1875,403.5 Q182.5156,403.5 182.75,403.7656 Q183,404.0156 183,404.375 Q183,404.7188 182.6563,405.125 Q182.1563,405.7188 181.3594,406.0469 Q180.3125,406.5 179.0313,406.5 Q177.5313,406.5 176.3281,405.9063 Q175.3594,405.4375 174.6719,404.4219 Q174,403.4063 174,402.2031 L174,401.1094 Q174,399.8594 174.5938,398.7656 Q175.2031,397.6719 176.25,397.0938 Q177.3125,396.5 178.5,396.5 Q179.2188,396.5 179.8438,396.75 Q180.4688,397 181,397.5 Z " fill="#000000"/><ellipse cx="198" cy="400.5" fill="#84BE84" rx="3" ry="3" style="stroke:#038048;stroke-width:1.0;"/><text fill="#000000" font-family="sans-serif" font-size="12" lengthAdjust="spacing" textLength="33" x="204" y="405.9102">Shrub</text><line style="stroke:#A80036;stroke-width:1.5;" x1="165" x2="239" y1="417" y2="417"/><line style="stroke:#A80036;stroke-width:1.5;" x1="165" x2="239" y1="425" y2="425"/><!--MD5=[a1b13a21d97c4cdbea0e756785c43e17]
reverse link Comparable to Plant--><path d="M103,124.12 C103,141.42 103,161.15 103,179.84 " fill="none" id="Comparable-backto-Plant" style="stroke:#A80036;stroke-width:1.0;stroke-dasharray:7.0,7.0;"/><polygon fill="none" points="96,124.11,103,104.11,110,124.11,96,124.11" style="stroke:#A80036;stroke-width:1.0;"/><!--MD5=[a53fea5303d980ea9c51e392343a32e1]
reverse link Plant to Flower--><path d="M94.67,345.38 C93.36,359.91 92.11,373.72 91.11,384.66 " fill="none" id="Plant-backto-Flower" style="stroke:#A80036;stroke-width:1.0;"/><polygon fill="none" points="87.72,344.61,96.49,325.32,101.66,345.87,87.72,344.61" style="stroke:#A80036;stroke-width:1.0;"/><!--MD5=[b5c158d6925495980fff1b0ec2e1526f]
reverse link Plant to Shrub--><path d="M159.96,342.4 C169.97,358.01 179.56,372.98 187.04,384.66 " fill="none" id="Plant-backto-Shrub" style="stroke:#A80036;stroke-width:1.0;"/><polygon fill="none" points="153.92,345.94,149.02,325.32,165.71,338.39,153.92,345.94" style="stroke:#A80036;stroke-width:1.0;"/><!--MD5=[395336ff6b447266ce7890f24b748b6a]
@startuml
package java.lang {

    interface Comparable<T> {
        +compareTo(other: T): int
    }
}

package de.thro.inf.prg3.a04.model {
        +enum PlantColor {
            GREEN,
            YELLOW,
            RED,
            BLUE,
            ORANGE,
            VIOLETTE
        }

        +abstract class Plant implements Comparable {
            -height: double
            -family: String
            -name: String

            +getHeight(): double
            +getFamily(): String
            +getName(): String
            +{abstract} getColor(): PlantColor
        }

        +class Flower extends Plant {
        }

        +class Shrub extends Plant{
        }
    }
@enduml

PlantUML version 1.2021.7(Sun May 23 14:40:07 CEST 2021)
(GPL source distribution)
Java Runtime: OpenJDK Runtime Environment
JVM: OpenJDK 64-Bit Server VM
Default Encoding: Cp1252
Language: de
Country: DE
--></g></svg>