<?xml version="1.0" encoding="UTF-8" standalone="no"?><svg xmlns="http://www.w3.org/2000/svg" xmlns:xlink="http://www.w3.org/1999/xlink" contentScriptType="application/ecmascript" contentStyleType="text/css" height="162px" preserveAspectRatio="none" style="width:652px;height:162px;" version="1.1" viewBox="0 0 652 162" width="652px" zoomAndPan="magnify"><defs><filter height="300%" id="f1cv1nfy19nkby" width="300%" x="-1" y="-1"><feGaussianBlur result="blurOut" stdDeviation="2.0"/><feColorMatrix in="blurOut" result="blurOut2" type="matrix" values="0 0 0 0 0 0 0 0 0 0 0 0 0 0 0 0 0 0 .4 0"/><feOffset dx="4.0" dy="4.0" in="blurOut2" result="blurOut3"/><feBlend in="SourceGraphic" in2="blurOut3" mode="normal"/></filter></defs><g><!--MD5=[fbe3547c4bf642a8927d538f8415ab4e]
cluster de.thro.inf.fpk.a06--><polygon fill="#FFFFFF" filter="url(#f1cv1nfy19nkby)" points="14,16,167,16,174,38.2969,630,38.2969,630,150,14,150,14,16" style="stroke: #000000; stroke-width: 1.5;"/><line style="stroke: #000000; stroke-width: 1.5;" x1="14" x2="174" y1="38.2969" y2="38.2969"/><text fill="#000000" font-family="sans-serif" font-size="14" font-weight="bold" lengthAdjust="spacingAndGlyphs" textLength="147" x="18" y="30.9951">de.thro.inf.fpk.a06</text><!--MD5=[97f460e2a1ebd02c8edfa82b760f5095]
class ICNDBApi--><rect fill="#FEFECE" filter="url(#f1cv1nfy19nkby)" height="99.2188" id="ICNDBApi" style="stroke: #A80036; stroke-width: 1.5;" width="397" x="225.5" y="43"/><ellipse cx="386.25" cy="59" fill="#B4A7E5" rx="11" ry="11" style="stroke: #A80036; stroke-width: 1.0;"/><path d="M382.1719,54.7656 L382.1719,52.6094 L389.5625,52.6094 L389.5625,54.7656 L387.0938,54.7656 L387.0938,62.8438 L389.5625,62.8438 L389.5625,65 L382.1719,65 L382.1719,62.8438 L384.6406,62.8438 L384.6406,54.7656 L382.1719,54.7656 Z "/><ellipse cx="411.75" cy="58.5" fill="#84BE84" rx="3" ry="3" style="stroke: #038048; stroke-width: 1.0;"/><text fill="#000000" font-family="sans-serif" font-size="12" font-style="italic" lengthAdjust="spacingAndGlyphs" textLength="56" x="417.75" y="63.1543">ICNDBApi</text><line style="stroke: #A80036; stroke-width: 1.5;" x1="226.5" x2="621.5" y1="75" y2="75"/><line style="stroke: #A80036; stroke-width: 1.5;" x1="226.5" x2="621.5" y1="83" y2="83"/><text fill="#000000" font-family="sans-serif" font-size="11" lengthAdjust="spacingAndGlyphs" textLength="221" x="231.5" y="97.2104">getRandomJoke(): Call&lt;JokeResponse&gt;</text><text fill="#000000" font-family="sans-serif" font-size="11" lengthAdjust="spacingAndGlyphs" textLength="385" x="231.5" y="110.0151">getRandomJoke(categoriesToInclude: String[]): Call&lt;JokeResponse&gt;</text><text fill="#000000" font-family="sans-serif" font-size="11" lengthAdjust="spacingAndGlyphs" textLength="288" x="231.5" y="122.8198">getRandomJokes(count: int): Call&lt;JokesResponse&gt;</text><text fill="#000000" font-family="sans-serif" font-size="11" lengthAdjust="spacingAndGlyphs" textLength="231" x="231.5" y="135.6245">getJokeById(id: int): Call&lt;JokeResponse&gt;</text><!--MD5=[335f4d9be48430461c68bf6d6fdba145]
class App--><rect fill="#FEFECE" filter="url(#f1cv1nfy19nkby)" height="60.8047" id="App" style="stroke: #A80036; stroke-width: 1.5;" width="169" x="21.5" y="62"/><ellipse cx="84.25" cy="78" fill="#ADD1B2" rx="11" ry="11" style="stroke: #A80036; stroke-width: 1.0;"/><path d="M87.2188,83.6406 Q86.6406,83.9375 86,84.0859 Q85.3594,84.2344 84.6563,84.2344 Q82.1563,84.2344 80.8359,82.5859 Q79.5156,80.9375 79.5156,77.8125 Q79.5156,74.6875 80.8359,73.0313 Q82.1563,71.375 84.6563,71.375 Q85.3594,71.375 86.0078,71.5313 Q86.6563,71.6875 87.2188,71.9844 L87.2188,74.7031 Q86.5938,74.125 86,73.8516 Q85.4063,73.5781 84.7813,73.5781 Q83.4375,73.5781 82.75,74.6484 Q82.0625,75.7188 82.0625,77.8125 Q82.0625,79.9063 82.75,80.9766 Q83.4375,82.0469 84.7813,82.0469 Q85.4063,82.0469 86,81.7734 Q86.5938,81.5 87.2188,80.9219 L87.2188,83.6406 Z "/><ellipse cx="109.75" cy="77.5" fill="#84BE84" rx="3" ry="3" style="stroke: #038048; stroke-width: 1.0;"/><text fill="#000000" font-family="sans-serif" font-size="12" lengthAdjust="spacingAndGlyphs" textLength="24" x="115.75" y="82.1543">App</text><line style="stroke: #A80036; stroke-width: 1.5;" x1="22.5" x2="189.5" y1="94" y2="94"/><line style="stroke: #A80036; stroke-width: 1.5;" x1="22.5" x2="189.5" y1="102" y2="102"/><ellipse cx="32.5" cy="113" fill="#84BE84" rx="3" ry="3" style="stroke: #038048; stroke-width: 1.0;"/><text fill="#000000" font-family="sans-serif" font-size="11" lengthAdjust="spacingAndGlyphs" text-decoration="underline" textLength="143" x="41.5" y="116.2104">main(args: String[]): void</text><!--MD5=[d7b6b53dba3f88f42b026905de2d0f9d]
@startuml
package de.thro.inf.fpk.a06 {

    +interface ICNDBApi {
        getRandomJoke(): Call<JokeResponse>
        getRandomJoke(categoriesToInclude: String[]): Call<JokeResponse>
        getRandomJokes(count: int): Call<JokesResponse>
        getJokeById(id: int): Call<JokeResponse>
    }

    +class App {
        +{static} main(args: String[]): void
    }
}
@enduml

PlantUML version 1.2019.11(Sun Sep 22 10:02:15 UTC 2019)
(GPL source distribution)
Java Runtime: OpenJDK Runtime Environment
JVM: OpenJDK 64-Bit Server VM
Java Version: 1.8.0_222-heroku-b10
Operating System: Linux
Default Encoding: UTF-8
Language: en
Country: US
--></g></svg>